<svg id="Capa_1" enable-background="new 0 0 512.027 512.027" height="512" viewBox="0 0 512.027 512.027" width="512" xmlns="http://www.w3.org/2000/svg"><g><path d="m455.035 122.256-110.251-110.251-10.811-4.478h-155.919l-10.811 4.478-110.251 110.251-4.479 10.811v155.919l4.479 10.811 110.251 110.251 10.811 4.479h155.919l10.811-4.479 110.251-110.251 4.478-10.811v-155.919z" fill="#8efaec"/><g fill="#49d1c1"><path d="m188.683 11.923c-9.448-9.448-25.603-2.757-25.603 10.605v44.898l57.351-23.756z"/><path d="m67.86 117.748c-13.362 0-20.053 16.155-10.605 25.603l31.748 31.748 23.756-57.351z"/><path d="m57.255 278.012c-9.448 9.448-2.757 25.603 10.605 25.603h44.898l-23.756-57.351z"/><path d="m163.08 398.835c0 13.362 16.155 20.053 25.603 10.605l31.748-31.748-57.351-23.756z"/><path d="m323.344 409.44c9.448 9.448 25.603 2.757 25.603-10.605v-44.898l-57.351 23.756z"/><path d="m444.167 303.616c13.362 0 20.053-16.155 10.605-25.603l-31.748-31.748-23.756 57.351z"/><path d="m454.772 143.351c9.448-9.448 2.757-25.603-10.605-25.603h-44.898l23.756 57.351z"/><path d="m348.947 22.529c0-13.362-16.155-20.053-25.603-10.605l-31.748 31.748 57.351 23.756z"/></g><path d="m430.307 138.487c-4.769-11.514-15.473-19.333-27.697-20.552h-53.399v-50.399l-.264-.109c0-13.588-8.185-25.838-20.739-31.038-11.514-4.769-24.611-2.729-34.117 5.051l-37.946 37.946-35.715-35.715c-9.608-9.608-24.058-12.483-36.612-7.283s-20.739 17.45-20.739 31.038v50.508h-53.663c-12.223 1.22-22.928 9.039-27.697 20.553-5.2 12.554-2.326 27.004 7.283 36.612l-.109.264 35.638 35.637-37.76 37.76c-7.78 9.506-9.821 22.603-5.051 34.117 5.2 12.554 17.45 20.739 31.038 20.739l.187.451h50.135v49.871c0 13.588 8.185 25.838 20.739 31.038s27.004 2.326 36.612-7.283l.45.187 35.264-35.264 35.187 35.187.264-.109c9.608 9.608 24.058 12.483 36.612 7.283s20.739-17.45 20.739-31.038l.264-.109v-49.762h49.871l.187-.45c13.588 0 25.838-8.185 31.038-20.739s2.326-27.004-7.283-36.612l-35.264-35.267 35.451-35.451-.187-.45c9.608-9.608 12.483-24.058 7.283-36.612z" fill="#50ebd1"/><path d="m429.513 414.527h-31.623l-15 45 45 45h31.623z" fill="#626a7c"/><path d="m82.513 414.527-30 90h375.377l-30-90z" fill="#77839d"/><path d="m340.306 474.527h-30l-33.541-15 33.541-15h30z" fill="#ffe345"/><path d="m171.721 444.527h138.585v30h-138.585z" fill="#fff19e"/><path d="m349.079 117.961-93.066-38.549-93.065 38.549-38.549 93.066 38.549 93.065 93.065 38.549 93.066-38.549 38.549-93.065z" fill="#cffbff"/><path d="m436.629 412.155c-1.021-3.063-3.887-5.128-7.115-5.128h-71.109s105.532-106.101 106.867-109.323c1.37-3.307 1.923-6.737 1.72-10.081.014-1.233.022-153.452.022-153.452.159-3.261-.408-6.6-1.743-9.822-1.368-3.303-3.398-6.117-5.902-8.337-.857-.875-108.502-108.531-108.502-108.531-2.193-2.418-4.955-4.377-8.177-5.711-3.309-1.371-6.74-1.925-10.084-1.721-1.233-.014-153.435-.021-153.435-.021-3.265-.161-6.609.406-9.835 1.743-3.309 1.37-6.126 3.405-8.347 5.913-.884.862-108.523 108.491-108.523 108.491-2.417 2.193-4.376 4.954-5.709 8.174-1.37 3.307-1.924 6.736-1.721 10.078-.015 1.233-.022 153.452-.022 153.452-.16 3.262.407 6.602 1.742 9.825 1.371 3.308 3.405 6.126 5.914 8.347.864.885 100.945 100.976 100.945 100.976h-71.102c-3.229 0-6.095 2.066-7.115 5.128l-30 90c-.763 2.287-.379 4.801 1.031 6.757 1.409 1.956 3.673 3.115 6.084 3.115h104.208c4.143 0 7.5-3.358 7.5-7.5s-3.357-7.5-7.5-7.5h-93.802l25-75h336.189l25 75h-262.387c-4.143 0-7.5 3.358-7.5 7.5s3.357 7.5 7.5 7.5h272.792c2.411 0 4.675-1.159 6.084-3.115 1.41-1.956 1.794-4.47 1.031-6.757zm-357.23-100.563h76.049v76.055c-20.705-20.706-55.354-55.355-76.049-76.055zm176.614-242.786-53.778-53.779c29.281 0 78.281.001 107.552.004zm0 18.724 87.325 36.171 36.171 87.325-36.171 87.325-87.325 36.171-87.325-36.171-36.171-87.325 36.171-87.325zm-85.565 311.968v-84.182l72.325 29.958-59.525 59.526c-3.286 3.286-7.084 2.075-8.171 1.625-1.086-.449-4.629-2.278-4.629-6.927zm-48.682-201.712-59.526-59.525c-3.288-3.288-2.075-7.086-1.626-8.171.45-1.086 2.278-4.628 6.928-4.628h84.182zm0 26.481 29.958 72.325h-84.182c-4.649 0-6.478-3.543-6.928-4.628-.449-1.086-1.661-4.884 1.626-8.171zm80.473 182.756 53.774-53.775 53.778 53.779c-29.281-.001-78.281-.002-107.552-.004zm188.022-182.756 59.526 59.525c3.287 3.287 2.075 7.085 1.626 8.171-.45 1.085-2.278 4.628-6.928 4.628h-84.182zm-53.311 182.159c-1.086.45-4.885 1.662-8.171-1.625l-59.525-59.526 72.325-29.958v84.182c0 4.648-3.543 6.477-4.629 6.927zm19.629-94.834h76.054c-20.706 20.705-55.355 55.354-76.054 76.05zm41.655-100.565 53.779-53.778c0 29.282-.001 78.282-.004 107.553zm53.179-80.937c.449 1.085 1.662 4.884-1.626 8.171l-59.526 59.525-29.958-72.325h84.182c4.65 0 6.478 3.543 6.928 4.629zm-295.965-19.629h-76.055c20.705-20.705 55.355-55.354 76.055-76.05zm-41.655 100.566-53.779 53.778c0-29.282.001-78.282.004-107.553zm318.836-100.566h-76.05v-76.055c20.705 20.706 55.354 55.356 76.05 76.055zm-91.05-87.906v84.182l-72.325-29.958 59.525-59.526c3.287-3.286 7.086-2.075 8.171-1.625 1.086.449 4.629 2.278 4.629 6.927zm-158.331-5.302 59.525 59.526-72.325 29.958v-84.182c0-4.648 3.543-6.478 4.629-6.927 1.086-.451 4.884-1.662 8.171 1.625z"/><path d="m347.805 474.527v-30c0-4.142-3.357-7.5-7.5-7.5h-168.584c-4.143 0-7.5 3.358-7.5 7.5v30c0 4.142 3.357 7.5 7.5 7.5h168.584c4.143 0 7.5-3.358 7.5-7.5zm-15-7.5h-153.584v-15h153.584z"/></g></svg>